<svg width="1024" height="1024" version="1.1" viewBox="0 0 10.667 10.667" xmlns="http://www.w3.org/2000/svg"><path class="st3" d="m1.1198 8.3045a0.48148 0.48148 0 0 1-0.48148 0.48148 0.48148 0.48148 0 0 1-0.48148-0.48148 0.48148 0.48148 0 0 1 0.48148-0.48148 0.48148 0.48148 0 0 1 0.48148 0.48148z" fill="#01f9c6" stroke-width=".010417"/><g transform="matrix(.077659 0 0 .077659 -24.616 -71.705)"><path class="st3" d="m441.1 988.6c5.4-2.1 9.5 2 9.6 4.1 0.1 5.3 0.1 10.7 0 16 0 2.8-2.6 5.2-5.4 5.4-1.9 0.1-3.4-0.7-4.8-2-0.2 0.3-0.4 0.6-0.5 0.8-3.9 5.8-9.3 8.9-16.4 8.9h-53.3c-3.4 0-6.5-0.8-9.5-2.5-3.1-1.7-5.4-4.2-7.2-7.2-0.3 0.3-1.1-23.6-0.6-23.4 7.9-19.9 22.1-31.7 43.9-31.8 22-0.2 36.2 11.7 44.2 31.7" fill="#01f9c6" stroke-width=".13413"/><path class="st3" d="m381.5 999.7c3.1 0 5.7-2.6 5.8-5.7s-2.5-5.7-5.6-5.8-5.8 2.6-5.8 5.7c-0.1 3.2 2.5 5.8 5.6 5.8zm32.6-5.7c0-3.1-2.6-5.7-5.7-5.7s-5.8 2.7-5.8 5.8c0.1 3.1 2.7 5.7 5.8 5.7 3.1-0.1 5.7-2.7 5.7-5.8z" fill="#03f9ca" stroke-width=".13413"/><path d="m376.2 1007.6c-7.3-0.1-13.5-6.3-13.5-13.6 0-7.4 6.4-13.7 13.8-13.5 7.3 0.2 13.5 6.5 13.3 13.7-0.1 7.3-6.3 13.4-13.6 13.4z" fill="#202020" stroke-width=".13413"/><path d="m430.6 993.9c0 7.3-6.1 13.5-13.5 13.6-7.3 0.1-13.6-6.1-13.7-13.4-0.1-7.4 6.2-13.8 13.6-13.8 7.4 0.1 13.6 6.3 13.6 13.6z" fill="#202020" stroke-width=".13413"/><g fill="#fff" stroke-width=".13413"><path class="st4" d="m376.2 1003c-5-0.1-9.3-4.3-9.3-9.3 0-5.1 4.4-9.4 9.5-9.3 5 0.1 9.2 4.4 9.2 9.4s-4.3 9.3-9.4 9.2z"/><path class="st4" d="m426 994c0 5-4.2 9.3-9.2 9.4s-9.3-4.2-9.4-9.2c-0.1-5.1 4.2-9.5 9.3-9.5 5 0 9.3 4.2 9.3 9.3z"/></g><path d="m381.5 992.4a4.1 4.1 0 0 1-4.1 4.1 4.1 4.1 0 0 1-4.1-4.1 4.1 4.1 0 0 1 4.1-4.1 4.1 4.1 0 0 1 4.1 4.1z" fill="#202020" stroke-width=".13413"/><path d="m418.9 993.1a4.1 4.1 0 0 1-4.1 4.1 4.1 4.1 0 0 1-4.1-4.1 4.1 4.1 0 0 1 4.1-4.1 4.1 4.1 0 0 1 4.1 4.1z" fill="#202020" stroke-width=".13413"/></g><path d="m8.6425 1.1988-0.37858 0.37859 1.427 1.4415 0.37858-0.37858z" color="#000000" fill="#01f9c6" stroke-miterlimit="10" style="-inkscape-stroke:none"/><g transform="matrix(.077659 0 0 .077659 -24.632 -71.715)" fill="#01f9c6" stroke-width=".13413"><path class="st3" d="m428.7 938.9a7.8 7.8 0 0 1-7.8 7.8 7.8 7.8 0 0 1-7.8-7.8 7.8 7.8 0 0 1 7.8-7.8 7.8 7.8 0 0 1 7.8 7.8z" fill="#01f9c6" stroke-width=".13413"/></g><path class="st3" d="m8.1402 1.2142c0-0.015532 0.00777-0.031064 0-0.046595 0-0.093191-0.054361-0.27181-0.3417-0.38829-0.17085-0.069893-0.39606-0.10872-0.6368-0.10096-0.23298 0.0077659-0.45819 0.062127-0.62904 0.14755-0.27957 0.13979-0.31064 0.3184-0.31064 0.41159 0 0.054361 0.00777 0.14755 0.27181 0.19415 0.13202 0.023298 0.18638-0.093191 0.2951-0.13202 0.30287-0.093191 0.58244-0.085425 0.61351 0.031063 0.038829 0.10872-0.18638 0.27957-0.48925 0.37276-0.13979 0.046595-0.28734 0-0.38053 0.062127l-0.015532 0.00777 0.062127 0.12425c0.038829 0.069893 0.13979 0.19415 0.39606 0.19415h0.038829c0.16308-0.0077693 0.35723-0.06213 0.54361-0.15532 0.18638-0.093191 0.3417-0.21744 0.44266-0.34946 0.13979-0.15532 0.15532-0.27957 0.13979-0.37276z" fill="#01f9c6" stroke-width=".010417"/><path class="st7" d="m8.4431 1.1832a0.38829 0.38829 0 0 1-0.38829 0.38829 0.38829 0.38829 0 0 1-0.38829-0.38829 0.38829 0.38829 0 0 1 0.38829-0.38829 0.38829 0.38829 0 0 1 0.38829 0.38829z" fill="#108c74" stroke-width=".010417"/><path d="m2.0609 6.004-1.558 1.9221 0.42227 0.34946 1.558-1.9221z" color="#000000" fill="#01f9c6" stroke-miterlimit="10" style="-inkscape-stroke:none"/><path d="m0.77952 8.0279-0.29122 0.36403 1.5289 1.194 0.29122-0.36403z" color="#000000" fill="#01f9c6" stroke-miterlimit="10" style="-inkscape-stroke:none"/><path class="st7" d="m0.91016 8.3045a0.27181 0.27181 0 0 1-0.2718 0.2718 0.27181 0.27181 0 0 1-0.2718-0.2718 0.27181 0.27181 0 0 1 0.2718-0.2718 0.27181 0.27181 0 0 1 0.2718 0.2718z" fill="#108c74" stroke-width=".010417"/><path class="st13" d="m7.3092 7.0386" fill="none" stroke="#03f9ca" stroke-miterlimit="10" stroke-width=".010417"/><path class="st13" d="m4.8475 7.0386" fill="none" stroke="#03f9ca" stroke-miterlimit="10" stroke-width=".010417"/><path class="st13" d="m5.4998 6.495" fill="none" stroke="#03f9ca" stroke-miterlimit="10" stroke-width=".010417"/><path class="st13" d="m5.4843 7.5279" fill="none" stroke="#03f9ca" stroke-miterlimit="10" stroke-width=".010417"/><path class="st3" d="m3.4185 6.1378a0.96297 0.96297 0 0 1-0.96297 0.96297 0.96297 0.96297 0 0 1-0.96297-0.96297 0.96297 0.96297 0 0 1 0.96297-0.96297 0.96297 0.96297 0 0 1 0.96297 0.96297z" fill="#01f9c6" stroke-width=".010417"/><path class="st7" d="m3.0069 6.1378a0.55138 0.55138 0 0 1-0.55138 0.55138 0.55138 0.55138 0 0 1-0.55138-0.55138 0.55138 0.55138 0 0 1 0.55138-0.55138 0.55138 0.55138 0 0 1 0.55138 0.55138z" fill="#108c74" stroke-width=".010417"/><path d="m9.72 3.0189v2.2861h0.55332l-0.01453-2.2861z" color="#000000" fill="#03f9ca" stroke-miterlimit="10" style="-inkscape-stroke:none"/><path class="st3" d="m10.47 2.946a0.48148 0.48148 0 0 1-0.48148 0.48148 0.48148 0.48148 0 0 1-0.48148-0.48148 0.48148 0.48148 0 0 1 0.48148-0.48148 0.48148 0.48148 0 0 1 0.48148 0.48148z" fill="#03f9ca" stroke-width=".010417"/><path class="st7" d="m10.26 2.946a0.27181 0.27181 0 0 1-0.2718 0.2718 0.27181 0.27181 0 0 1-0.2718-0.2718 0.27181 0.27181 0 0 1 0.2718-0.2718 0.27181 0.27181 0 0 1 0.2718 0.2718z" fill="#108c74" stroke-width=".010417"/><path class="st3" d="m2.9992 9.4849a0.60574 0.60574 0 0 1-0.60574 0.60574 0.60574 0.60574 0 0 1-0.60574-0.60574 0.60574 0.60574 0 0 1 0.60574-0.60574 0.60574 0.60574 0 0 1 0.60574 0.60574z" fill="#01f9c6" stroke-width=".010417"/><path class="st3" d="m2.308 9.4616c0 0.015532-0.00777 0.031064 0 0.046595 0 0.093191 0.054361 0.27181 0.3417 0.38829 0.17085 0.069893 0.39606 0.10872 0.6368 0.10096 0.23298-0.00777 0.45819-0.062127 0.62904-0.14755 0.27957-0.13979 0.31064-0.3184 0.31064-0.41159 0-0.054361-0.00777-0.14755-0.27181-0.19415-0.13202-0.023298-0.18638 0.093191-0.2951 0.13202-0.30287 0.093191-0.58244 0.085425-0.6135-0.031064-0.031064-0.11649 0.18638-0.27957 0.48925-0.37276 0.13979-0.046595 0.28734 0 0.38053-0.062127l0.015532-0.00777-0.062127-0.12425c-0.03883-0.069888-0.13979-0.19414-0.39606-0.19414h-0.038829c-0.16308 0.0077659-0.35723 0.062127-0.54361 0.15532-0.18638 0.093191-0.3417 0.21744-0.44266 0.34946-0.13979 0.15532-0.15532 0.27957-0.13979 0.37276z" fill="#01f9c6" stroke-width=".010417"/><path class="st7" d="m2.7817 9.4927a0.38829 0.38829 0 0 1-0.38829 0.38829 0.38829 0.38829 0 0 1-0.38829-0.38829 0.38829 0.38829 0 0 1 0.38829-0.38829 0.38829 0.38829 0 0 1 0.38829 0.38829z" fill="#108c74" stroke-width=".010417"/></svg>
